<?xml version="1.0" encoding="UTF-8" standalone="no"?>
<!-- Created with Inkscape (http://www.inkscape.org/) -->

<svg
   xmlns:dc="http://purl.org/dc/elements/1.1/"
   xmlns:cc="http://creativecommons.org/ns#"
   xmlns:rdf="http://www.w3.org/1999/02/22-rdf-syntax-ns#"
   xmlns:svg="http://www.w3.org/2000/svg"
   xmlns="http://www.w3.org/2000/svg"
   xmlns:sodipodi="http://sodipodi.sourceforge.net/DTD/sodipodi-0.dtd"
   xmlns:inkscape="http://www.inkscape.org/namespaces/inkscape"
   width="355.58408mm"
   height="82.375mm"
   viewBox="0 0 355.58408 82.375"
   version="1.1"
   id="svg8"
   inkscape:version="0.92.4 (5da689c313, 2019-01-14)"
   sodipodi:docname="fullLogoDark.svg">
  <defs
     id="defs2" />
  <sodipodi:namedview
     id="base"
     pagecolor="#ffffff"
     bordercolor="#666666"
     borderopacity="1.0"
     inkscape:pageopacity="0.0"
     inkscape:pageshadow="2"
     inkscape:zoom="0.55010171"
     inkscape:cx="-106.09473"
     inkscape:cy="-132.46898"
     inkscape:document-units="mm"
     inkscape:current-layer="layer1"
     showgrid="false"
     inkscape:window-width="2560"
     inkscape:window-height="1417"
     inkscape:window-x="5752"
     inkscape:window-y="705"
     inkscape:window-maximized="1" />
  <metadata
     id="metadata5">
    <rdf:RDF>
      <cc:Work
         rdf:about="">
        <dc:format>image/svg+xml</dc:format>
        <dc:type
           rdf:resource="http://purl.org/dc/dcmitype/StillImage" />
        <dc:title></dc:title>
      </cc:Work>
    </rdf:RDF>
  </metadata>
  <g
     inkscape:label="Layer 1"
     inkscape:groupmode="layer"
     id="layer1"
     transform="translate(1.5571283,-121.47836)">
    <g
       transform="translate(-363.9052,-34.34993)"
       id="g855">
      <rect
         style="opacity:1;fill:none;fill-opacity:1;stroke:#ff3b3f;stroke-width:3;stroke-miterlimit:4;stroke-dasharray:none;stroke-opacity:1"
         id="rect843"
         width="79.375"
         height="79.375"
         x="24.770041"
         y="70.943321" />
      <g
         id="g853"
         transform="translate(2.6352538,3.3790566)"
         style="fill:#ff3b3f;fill-opacity:1">
        <text
           id="text847"
           y="117.83423"
           x="31.512899"
           style="font-style:normal;font-variant:normal;font-weight:normal;font-stretch:normal;font-size:53.02265549px;line-height:1.25;font-family:'Century Schoolbook';-inkscape-font-specification:'Century Schoolbook, Normal';font-variant-ligatures:normal;font-variant-caps:normal;font-variant-numeric:normal;font-feature-settings:normal;text-align:start;letter-spacing:0px;word-spacing:0px;writing-mode:lr-tb;text-anchor:start;fill:#ff3b3f;fill-opacity:1;stroke:none;stroke-width:1.32556629"
           xml:space="preserve"><tspan
             style="font-style:normal;font-variant:normal;font-weight:normal;font-stretch:normal;font-size:53.02265549px;font-family:'Century Schoolbook';-inkscape-font-specification:'Century Schoolbook, Normal';font-variant-ligatures:normal;font-variant-caps:normal;font-variant-numeric:normal;font-feature-settings:normal;text-align:start;writing-mode:lr-tb;text-anchor:start;fill:#ff3b3f;fill-opacity:1;stroke-width:1.32556629"
             y="117.83423"
             x="31.512899"
             id="tspan845"
             sodipodi:role="line">G</tspan></text>
        <text
           id="text851"
           y="135.76315"
           x="57.574123"
           style="font-style:normal;font-variant:normal;font-weight:normal;font-stretch:normal;font-size:49.06729889px;line-height:1.25;font-family:'Century Schoolbook';-inkscape-font-specification:'Century Schoolbook, Normal';font-variant-ligatures:normal;font-variant-caps:normal;font-variant-numeric:normal;font-feature-settings:normal;text-align:start;letter-spacing:0px;word-spacing:0px;writing-mode:lr-tb;text-anchor:start;fill:#ff3b3f;fill-opacity:1;stroke:none;stroke-width:1.22668242"
           xml:space="preserve"><tspan
             style="font-style:normal;font-variant:normal;font-weight:normal;font-stretch:normal;font-size:49.06729889px;font-family:'Century Schoolbook';-inkscape-font-specification:'Century Schoolbook, Normal';font-variant-ligatures:normal;font-variant-caps:normal;font-variant-numeric:normal;font-feature-settings:normal;text-align:start;writing-mode:lr-tb;text-anchor:start;fill:#ff3b3f;fill-opacity:1;stroke-width:1.22668242"
             y="135.76315"
             x="57.574123"
             id="tspan849"
             sodipodi:role="line">L</tspan></text>
      </g>
    </g>
    <g
       id="g870"
       transform="translate(-386.35169,31.289046)">
      <g
         transform="translate(-17.004916,44.55288)"
         id="g839">
        <rect
           style="opacity:1;fill:none;fill-opacity:1;stroke:#ff3b3f;stroke-width:3;stroke-miterlimit:4;stroke-dasharray:none;stroke-opacity:1"
           id="rect817"
           width="79.375"
           height="79.375"
           x="24.770041"
           y="70.943321" />
        <g
           id="g831"
           transform="translate(2.6352538,3.3790566)"
           style="fill:#ff3b3f;fill-opacity:1">
          <text
             id="text821"
             y="117.83423"
             x="31.512899"
             style="font-style:normal;font-variant:normal;font-weight:normal;font-stretch:normal;font-size:53.02265549px;line-height:1.25;font-family:'Century Schoolbook';-inkscape-font-specification:'Century Schoolbook, Normal';font-variant-ligatures:normal;font-variant-caps:normal;font-variant-numeric:normal;font-feature-settings:normal;text-align:start;letter-spacing:0px;word-spacing:0px;writing-mode:lr-tb;text-anchor:start;fill:#ff3b3f;fill-opacity:1;stroke:none;stroke-width:1.32556629"
             xml:space="preserve"><tspan
               style="font-style:normal;font-variant:normal;font-weight:normal;font-stretch:normal;font-size:53.02265549px;font-family:'Century Schoolbook';-inkscape-font-specification:'Century Schoolbook, Normal';font-variant-ligatures:normal;font-variant-caps:normal;font-variant-numeric:normal;font-feature-settings:normal;text-align:start;writing-mode:lr-tb;text-anchor:start;fill:#ff3b3f;fill-opacity:1;stroke-width:1.32556629"
               y="117.83423"
               x="31.512899"
               id="tspan819"
               sodipodi:role="line">G</tspan></text>
          <text
             id="text825"
             y="135.76315"
             x="57.574123"
             style="font-style:normal;font-variant:normal;font-weight:normal;font-stretch:normal;font-size:49.06729889px;line-height:1.25;font-family:'Century Schoolbook';-inkscape-font-specification:'Century Schoolbook, Normal';font-variant-ligatures:normal;font-variant-caps:normal;font-variant-numeric:normal;font-feature-settings:normal;text-align:start;letter-spacing:0px;word-spacing:0px;writing-mode:lr-tb;text-anchor:start;fill:#ff3b3f;fill-opacity:1;stroke:none;stroke-width:1.22668242"
             xml:space="preserve"><tspan
               style="font-style:normal;font-variant:normal;font-weight:normal;font-stretch:normal;font-size:49.06729889px;font-family:'Century Schoolbook';-inkscape-font-specification:'Century Schoolbook, Normal';font-variant-ligatures:normal;font-variant-caps:normal;font-variant-numeric:normal;font-feature-settings:normal;text-align:start;writing-mode:lr-tb;text-anchor:start;fill:#ff3b3f;fill-opacity:1;stroke-width:1.22668242"
               y="135.76315"
               x="57.574123"
               id="tspan823"
               sodipodi:role="line">L</tspan></text>
        </g>
      </g>
      <text
         id="text859"
         y="166.8233"
         x="113.99171"
         style="font-style:normal;font-variant:normal;font-weight:normal;font-stretch:normal;font-size:42.91252136px;line-height:1.25;font-family:'Century Schoolbook';-inkscape-font-specification:'Century Schoolbook, Normal';font-variant-ligatures:normal;font-variant-caps:normal;font-variant-numeric:normal;font-feature-settings:normal;text-align:start;letter-spacing:0px;word-spacing:0px;writing-mode:lr-tb;text-anchor:start;fill:#ff3b3f;fill-opacity:1;stroke:none;stroke-width:1.07281291"
         xml:space="preserve"><tspan
           style="font-style:normal;font-variant:normal;font-weight:normal;font-stretch:normal;font-size:42.91252136px;font-family:'Century Schoolbook';-inkscape-font-specification:'Century Schoolbook, Normal';font-variant-ligatures:normal;font-variant-caps:normal;font-variant-numeric:normal;font-feature-settings:normal;text-align:start;writing-mode:lr-tb;text-anchor:start;fill:#ff3b3f;fill-opacity:1;stroke-width:1.07281291"
           y="166.8233"
           x="113.99171"
           id="tspan857"
           sodipodi:role="line">Greg Layton</tspan></text>
    </g>
    <g
       id="g958">
      <g
         transform="translate(0,9.1826547)"
         id="g913">
        <rect
           y="247.45435"
           x="-380.28705"
           height="79.375"
           width="79.375"
           id="rect872"
           style="opacity:1;fill:#ff3b3f;fill-opacity:1;stroke:#e6e6e6;stroke-width:3;stroke-miterlimit:4;stroke-dasharray:none;stroke-opacity:1" />
        <g
           style="fill:#e6e6e6;fill-opacity:1"
           transform="translate(-402.42185,179.89009)"
           id="g882">
          <text
             xml:space="preserve"
             style="font-style:normal;font-variant:normal;font-weight:normal;font-stretch:normal;font-size:53.02265549px;line-height:1.25;font-family:'Century Schoolbook';-inkscape-font-specification:'Century Schoolbook, Normal';font-variant-ligatures:normal;font-variant-caps:normal;font-variant-numeric:normal;font-feature-settings:normal;text-align:start;letter-spacing:0px;word-spacing:0px;writing-mode:lr-tb;text-anchor:start;fill:#e6e6e6;fill-opacity:1;stroke:none;stroke-width:1.32556629"
             x="31.512899"
             y="117.83423"
             id="text876"><tspan
               sodipodi:role="line"
               id="tspan874"
               x="31.512899"
               y="117.83423"
               style="font-style:normal;font-variant:normal;font-weight:normal;font-stretch:normal;font-size:53.02265549px;font-family:'Century Schoolbook';-inkscape-font-specification:'Century Schoolbook, Normal';font-variant-ligatures:normal;font-variant-caps:normal;font-variant-numeric:normal;font-feature-settings:normal;text-align:start;writing-mode:lr-tb;text-anchor:start;fill:#e6e6e6;fill-opacity:1;stroke-width:1.32556629">G</tspan></text>
          <text
             xml:space="preserve"
             style="font-style:normal;font-variant:normal;font-weight:normal;font-stretch:normal;font-size:49.06729889px;line-height:1.25;font-family:'Century Schoolbook';-inkscape-font-specification:'Century Schoolbook, Normal';font-variant-ligatures:normal;font-variant-caps:normal;font-variant-numeric:normal;font-feature-settings:normal;text-align:start;letter-spacing:0px;word-spacing:0px;writing-mode:lr-tb;text-anchor:start;fill:#e6e6e6;fill-opacity:1;stroke:none;stroke-width:1.22668242"
             x="57.574123"
             y="135.76315"
             id="text880"><tspan
               sodipodi:role="line"
               id="tspan878"
               x="57.574123"
               y="135.76315"
               style="font-style:normal;font-variant:normal;font-weight:normal;font-stretch:normal;font-size:49.06729889px;font-family:'Century Schoolbook';-inkscape-font-specification:'Century Schoolbook, Normal';font-variant-ligatures:normal;font-variant-caps:normal;font-variant-numeric:normal;font-feature-settings:normal;text-align:start;writing-mode:lr-tb;text-anchor:start;fill:#e6e6e6;fill-opacity:1;stroke-width:1.22668242">L</tspan></text>
        </g>
      </g>
      <text
         xml:space="preserve"
         style="font-style:normal;font-variant:normal;font-weight:normal;font-stretch:normal;font-size:42.91252136px;line-height:1.25;font-family:'Century Schoolbook';-inkscape-font-specification:'Century Schoolbook, Normal';font-variant-ligatures:normal;font-variant-caps:normal;font-variant-numeric:normal;font-feature-settings:normal;text-align:start;letter-spacing:0px;word-spacing:0px;writing-mode:lr-tb;text-anchor:start;fill:#e6e6e6;fill-opacity:1;stroke:none;stroke-width:1.07281291"
         x="-274.06049"
         y="307.96411"
         id="text888"><tspan
           sodipodi:role="line"
           id="tspan886"
           x="-274.06049"
           y="307.96411"
           style="font-style:normal;font-variant:normal;font-weight:normal;font-stretch:normal;font-size:42.91252136px;font-family:'Century Schoolbook';-inkscape-font-specification:'Century Schoolbook, Normal';font-variant-ligatures:normal;font-variant-caps:normal;font-variant-numeric:normal;font-feature-settings:normal;text-align:start;writing-mode:lr-tb;text-anchor:start;fill:#e6e6e6;fill-opacity:1;stroke-width:1.07281291">Greg Layton</tspan></text>
    </g>
    <g
       transform="translate(255.07374,-208.82037)"
       id="g947">
      <rect
         y="247.45435"
         x="-380.28705"
         height="79.375"
         width="79.375"
         id="rect935"
         style="opacity:1;fill:#ff3b3f;fill-opacity:1;stroke:#e6e6e6;stroke-width:3;stroke-miterlimit:4;stroke-dasharray:none;stroke-opacity:1" />
      <g
         style="fill:#e6e6e6;fill-opacity:1"
         transform="translate(-402.42185,179.89009)"
         id="g945">
        <text
           xml:space="preserve"
           style="font-style:normal;font-variant:normal;font-weight:normal;font-stretch:normal;font-size:53.02265549px;line-height:1.25;font-family:'Century Schoolbook';-inkscape-font-specification:'Century Schoolbook, Normal';font-variant-ligatures:normal;font-variant-caps:normal;font-variant-numeric:normal;font-feature-settings:normal;text-align:start;letter-spacing:0px;word-spacing:0px;writing-mode:lr-tb;text-anchor:start;fill:#e6e6e6;fill-opacity:1;stroke:none;stroke-width:1.32556629"
           x="31.512899"
           y="117.83423"
           id="text939"><tspan
             sodipodi:role="line"
             id="tspan937"
             x="31.512899"
             y="117.83423"
             style="font-style:normal;font-variant:normal;font-weight:normal;font-stretch:normal;font-size:53.02265549px;font-family:'Century Schoolbook';-inkscape-font-specification:'Century Schoolbook, Normal';font-variant-ligatures:normal;font-variant-caps:normal;font-variant-numeric:normal;font-feature-settings:normal;text-align:start;writing-mode:lr-tb;text-anchor:start;fill:#e6e6e6;fill-opacity:1;stroke-width:1.32556629">G</tspan></text>
        <text
           xml:space="preserve"
           style="font-style:normal;font-variant:normal;font-weight:normal;font-stretch:normal;font-size:49.06729889px;line-height:1.25;font-family:'Century Schoolbook';-inkscape-font-specification:'Century Schoolbook, Normal';font-variant-ligatures:normal;font-variant-caps:normal;font-variant-numeric:normal;font-feature-settings:normal;text-align:start;letter-spacing:0px;word-spacing:0px;writing-mode:lr-tb;text-anchor:start;fill:#e6e6e6;fill-opacity:1;stroke:none;stroke-width:1.22668242"
           x="57.574123"
           y="135.76315"
           id="text943"><tspan
             sodipodi:role="line"
             id="tspan941"
             x="57.574123"
             y="135.76315"
             style="font-style:normal;font-variant:normal;font-weight:normal;font-stretch:normal;font-size:49.06729889px;font-family:'Century Schoolbook';-inkscape-font-specification:'Century Schoolbook, Normal';font-variant-ligatures:normal;font-variant-caps:normal;font-variant-numeric:normal;font-feature-settings:normal;text-align:start;writing-mode:lr-tb;text-anchor:start;fill:#e6e6e6;fill-opacity:1;stroke-width:1.22668242">L</tspan></text>
      </g>
    </g>
    <g
       id="g911"
       transform="translate(380.22992,-133.65864)">
      <g
         id="g905"
         transform="translate(0,9.1826547)">
        <path
           style="opacity:1;fill:#ff3b3f;fill-opacity:1;stroke:#e6e6e6;stroke-width:3;stroke-miterlimit:4;stroke-dasharray:none;stroke-opacity:1"
           d="m -380.28705,247.45435 h 79.375 v 79.375 h -79.375 z"
           id="rect893" />
        <g
           id="g903"
           transform="translate(-402.42185,179.89009)"
           style="fill:#e6e6e6;fill-opacity:1">
          <g
             aria-label="G"
             style="font-style:normal;font-variant:normal;font-weight:normal;font-stretch:normal;font-size:53.02265549px;line-height:1.25;font-family:'Century Schoolbook';-inkscape-font-specification:'Century Schoolbook, Normal';font-variant-ligatures:normal;font-variant-caps:normal;font-variant-numeric:normal;font-feature-settings:normal;text-align:start;letter-spacing:0px;word-spacing:0px;writing-mode:lr-tb;text-anchor:start;fill:#e6e6e6;fill-opacity:1;stroke:none;stroke-width:1.32556629"
             id="text897">
            <path
               d="m 61.312253,82.546201 2.122978,-3.805825 h 1.734627 l 0.957929,15.275081 h -1.682848 q -1.941747,-6.601941 -4.582524,-9.553398 -3.365696,-3.754045 -7.715211,-3.754045 -3.339806,0 -5.980582,1.889967 -2.640777,1.889968 -4.064725,5.669903 -1.398059,3.779936 -1.398059,10.640778 0,6.653718 1.398059,10.407768 1.423948,3.75404 3.909385,5.54045 2.485437,1.76052 5.825243,1.76052 4.530744,0 6.990291,-2.53722 2.485437,-2.53721 2.485437,-6.55016 v -3.5987 q 0,-0.85437 -0.673139,-1.32039 -0.647249,-0.46602 -2.148867,-0.46602 h -3.236246 v -1.8123 h 16.05178 v 1.8123 h -2.174757 q -1.449839,0 -2.071198,0.5178 -0.621359,0.49191 -0.621359,1.44984 v 14.62783 h -1.708738 q -0.932039,-3.41748 -1.941748,-6.55016 -1.941747,3.18446 -4.634304,4.78964 -2.666667,1.57929 -6.058253,1.57929 -4.841424,0 -8.983819,-2.48544 -4.116505,-2.48544 -6.524272,-6.99029 -2.381877,-4.53075 -2.381877,-10.226538 0,-5.721683 2.407767,-10.252428 2.407767,-4.530744 6.576052,-7.197411 4.194175,-2.666667 8.46602,-2.666667 2.433657,0 4.634304,0.828479 2.226538,0.802589 5.022654,2.977346 z"
               style="font-style:normal;font-variant:normal;font-weight:normal;font-stretch:normal;font-size:53.02265549px;font-family:'Century Schoolbook';-inkscape-font-specification:'Century Schoolbook, Normal';font-variant-ligatures:normal;font-variant-caps:normal;font-variant-numeric:normal;font-feature-settings:normal;text-align:start;writing-mode:lr-tb;text-anchor:start;fill:#e6e6e6;fill-opacity:1;stroke-width:1.32556629"
               id="path914" />
          </g>
          <g
             aria-label="L"
             style="font-style:normal;font-variant:normal;font-weight:normal;font-stretch:normal;font-size:49.06729889px;line-height:1.25;font-family:'Century Schoolbook';-inkscape-font-specification:'Century Schoolbook, Normal';font-variant-ligatures:normal;font-variant-caps:normal;font-variant-numeric:normal;font-feature-settings:normal;text-align:start;letter-spacing:0px;word-spacing:0px;writing-mode:lr-tb;text-anchor:start;fill:#e6e6e6;fill-opacity:1;stroke:none;stroke-width:1.22668242"
             id="text901">
            <path
               d="m 59.107476,100.32832 h 16.41167 v 1.7969 h -3.929217 q -0.934387,0 -1.389601,0.50313 -0.431256,0.47917 -0.431256,1.53335 v 27.95974 q 0,1.00626 0.551049,1.43752 0.575007,0.40729 2.276071,0.40729 h 4.983397 q 3.977135,0 6.492792,-2.63545 2.539617,-2.6594 3.689631,-9.20011 h 1.677105 l -0.814594,13.63246 H 59.107476 v -1.7969 h 2.898996 q 1.485436,0 2.084402,-0.55104 0.598966,-0.57501 0.598966,-1.82086 v -27.67223 q 0,-0.88647 -0.503131,-1.34169 -0.503132,-0.45521 -1.485436,-0.45521 h -3.593797 z"
               style="font-style:normal;font-variant:normal;font-weight:normal;font-stretch:normal;font-size:49.06729889px;font-family:'Century Schoolbook';-inkscape-font-specification:'Century Schoolbook, Normal';font-variant-ligatures:normal;font-variant-caps:normal;font-variant-numeric:normal;font-feature-settings:normal;text-align:start;writing-mode:lr-tb;text-anchor:start;fill:#e6e6e6;fill-opacity:1;stroke-width:1.22668242"
               id="path917" />
          </g>
        </g>
      </g>
      <g
         aria-label="Greg Layton"
         style="font-style:normal;font-variant:normal;font-weight:normal;font-stretch:normal;font-size:42.91252136px;line-height:1.25;font-family:'Century Schoolbook';-inkscape-font-specification:'Century Schoolbook, Normal';font-variant-ligatures:normal;font-variant-caps:normal;font-variant-numeric:normal;font-feature-settings:normal;text-align:start;letter-spacing:0px;word-spacing:0px;writing-mode:lr-tb;text-anchor:start;fill:#e6e6e6;fill-opacity:1;stroke:none;stroke-width:1.07281291"
         id="text909">
        <path
           d="m -249.94315,279.40465 1.71818,-3.08014 h 1.40388 l 0.77527,12.36249 h -1.36197 q -1.5715,-5.34311 -3.70875,-7.73179 -2.72393,-3.03824 -6.2441,-3.03824 -2.70299,0 -4.84023,1.52959 -2.13725,1.5296 -3.28968,4.58879 -1.13149,3.0592 -1.13149,8.61184 0,5.38502 1.13149,8.42326 1.15243,3.03824 3.16396,4.48402 2.01152,1.42483 4.71451,1.42483 3.66684,0 5.65741,-2.05343 2.01152,-2.05343 2.01152,-5.3012 v -2.91252 q 0,-0.69147 -0.54478,-1.06863 -0.52384,-0.37716 -1.73913,-0.37716 h -2.61918 v -1.46673 h 12.9911 v 1.46673 h -1.76009 q -1.17338,0 -1.67627,0.41907 -0.50288,0.39812 -0.50288,1.17339 v 11.83866 h -1.38292 q -0.75432,-2.76585 -1.5715,-5.30121 -1.57151,2.57727 -3.75066,3.87638 -2.1582,1.27816 -4.90309,1.27816 -3.91828,0 -7.27082,-2.01153 -3.33159,-2.01152 -5.28025,-5.65741 -1.92771,-3.66684 -1.92771,-8.27659 0,-4.63069 1.94866,-8.29753 1.94866,-3.66685 5.32216,-5.82504 3.39445,-2.1582 6.85175,-2.1582 1.96962,0 3.75066,0.67051 1.80199,0.64955 4.06495,2.40963 z"
           style="font-style:normal;font-variant:normal;font-weight:normal;font-stretch:normal;font-size:42.91252136px;font-family:'Century Schoolbook';-inkscape-font-specification:'Century Schoolbook, Normal';font-variant-ligatures:normal;font-variant-caps:normal;font-variant-numeric:normal;font-feature-settings:normal;text-align:start;writing-mode:lr-tb;text-anchor:start;fill:#e6e6e6;fill-opacity:1;stroke-width:1.07281291"
           id="path920" />
        <path
           d="m -239.61313,288.33079 7.06129,-0.3562 v 7.94133 q 1.13148,-3.91828 2.72394,-5.92981 1.59246,-2.01152 3.93923,-2.01152 1.59246,0 2.53536,0.98481 0.96386,0.96385 0.96386,2.59822 0,1.32006 -0.64956,2.05343 -0.6286,0.73336 -1.59245,0.73336 -0.94291,0 -1.5296,-0.6286 -0.56574,-0.6286 -0.56574,-1.69722 0,-0.69146 0.33525,-1.29911 0.3143,-0.54479 0.3143,-0.64955 0,-0.31431 -0.39811,-0.31431 -0.85909,0 -1.94866,1.00577 -1.50865,1.40387 -2.32583,3.85542 -1.2572,3.81351 -1.2572,6.09743 v 4.21163 q 0,0.71242 0.50288,1.08958 0.50288,0.37716 1.71818,0.37716 h 2.49345 v 1.5715 h -12.19487 v -1.5715 h 1.94866 q 0.98481,0 1.48769,-0.37716 0.50289,-0.39812 0.50289,-0.94291 v -12.50916 q 0,-1.42483 -0.60765,-2.07439 -0.60765,-0.67051 -1.73913,-0.67051 h -1.71818 z"
           style="font-style:normal;font-variant:normal;font-weight:normal;font-stretch:normal;font-size:42.91252136px;font-family:'Century Schoolbook';-inkscape-font-specification:'Century Schoolbook, Normal';font-variant-ligatures:normal;font-variant-caps:normal;font-variant-numeric:normal;font-feature-settings:normal;text-align:start;writing-mode:lr-tb;text-anchor:start;fill:#e6e6e6;fill-opacity:1;stroke-width:1.07281291"
           id="path922" />
        <path
           d="m -201.85514,298.28365 h -14.05972 q 0.10477,4.48402 1.67627,6.32792 1.80199,2.07439 4.58879,2.07439 4.10687,0 6.60032,-4.67261 l 1.36197,0.5867 q -3.0592,5.95076 -8.84233,5.95076 -3.93923,0 -6.64222,-2.84966 -2.68203,-2.84966 -2.68203,-7.29178 0,-4.77737 2.64012,-7.71084 2.66108,-2.95443 6.53746,-2.95443 2.84966,0 4.92404,1.46674 2.07439,1.46673 3.12206,4.21163 0.73336,1.92771 0.77527,4.86118 z m -14.05972,-1.48769 h 8.50708 q 0.75432,0 1.17338,-0.50288 0.41907,-0.52384 0.41907,-1.76008 0,-2.30488 -1.44578,-3.91829 -1.42483,-1.61341 -3.3735,-1.61341 -2.17915,0 -3.70874,1.94867 -1.50865,1.94866 -1.57151,5.84599 z"
           style="font-style:normal;font-variant:normal;font-weight:normal;font-stretch:normal;font-size:42.91252136px;font-family:'Century Schoolbook';-inkscape-font-specification:'Century Schoolbook, Normal';font-variant-ligatures:normal;font-variant-caps:normal;font-variant-numeric:normal;font-feature-settings:normal;text-align:start;writing-mode:lr-tb;text-anchor:start;fill:#e6e6e6;fill-opacity:1;stroke-width:1.07281291"
           id="path924" />
        <path
           d="m -183.77238,289.44132 q 2.09534,-2.11629 3.85543,-2.11629 1.04766,0 1.73913,0.67051 0.69146,0.67051 0.69146,1.63436 0,0.77528 -0.48193,1.29911 -0.46097,0.50288 -1.08958,0.50288 -1.19434,0 -1.61341,-1.46673 -0.16762,-0.6286 -0.56574,-0.6286 -0.71241,0 -1.55055,0.9429 0.901,1.23625 1.23625,2.1582 0.33526,0.90099 0.33526,1.94866 0,1.82295 -0.88005,3.22682 -0.88004,1.38292 -2.93347,2.45155 -2.03248,1.06862 -3.89733,1.06862 h -2.28392 q -2.43059,0 -3.22682,0.50288 -0.79623,0.52384 -0.79623,1.5296 0,0.81718 0.64956,1.2572 0.64955,0.44002 2.45155,0.44002 l 5.17548,-0.10477 q 3.91828,0 5.63646,1.32007 1.73913,1.29911 1.73913,3.58303 0,2.5144 -1.96962,4.23258 -2.74489,2.43059 -8.19277,2.43059 -4.50498,0 -6.68413,-1.65532 -1.71817,-1.29911 -1.71817,-2.91252 0,-1.23625 1.08957,-2.26296 1.11053,-1.02672 3.70875,-1.5296 -2.07439,-0.50288 -3.12205,-1.46674 -1.04767,-0.9848 -1.04767,-2.43059 0,-1.34101 0.83813,-2.32582 0.85909,-1.00576 2.95443,-1.71818 -1.78104,-0.98481 -2.68203,-2.36773 -0.901,-1.40388 -0.901,-3.20587 0,-2.84966 2.24201,-4.77737 2.24201,-1.92771 5.82504,-1.92771 1.46674,0 2.82871,0.41907 1.36197,0.41907 2.64012,1.27815 z m -5.51074,-0.3562 q -1.86485,0 -3.08014,1.38292 -1.2153,1.36197 -1.2153,3.83447 0,2.64012 1.2153,4.10686 1.21529,1.44578 3.1011,1.44578 1.8858,0 3.08014,-1.40387 1.2153,-1.42483 1.2153,-4.06496 0,-2.45154 -1.23625,-3.87637 -1.21529,-1.42483 -3.08015,-1.42483 z m 1.23625,18.89994 q -3.85542,0 -5.51073,1.06863 -1.63437,1.06862 -1.63437,2.57726 0,1.42483 1.23625,2.24201 1.63436,1.08958 4.65165,1.08958 3.60398,0 5.42693,-1.19434 1.82294,-1.19435 1.82294,-2.66108 0,-0.85909 -0.56574,-1.61341 -0.56574,-0.73337 -1.80199,-1.13148 -1.23625,-0.37717 -3.62494,-0.37717 z"
           style="font-style:normal;font-variant:normal;font-weight:normal;font-stretch:normal;font-size:42.91252136px;font-family:'Century Schoolbook';-inkscape-font-specification:'Century Schoolbook, Normal';font-variant-ligatures:normal;font-variant-caps:normal;font-variant-numeric:normal;font-feature-settings:normal;text-align:start;writing-mode:lr-tb;text-anchor:start;fill:#e6e6e6;fill-opacity:1;stroke-width:1.07281291"
           id="path926" />
        <path
           d="m -163.92952,276.97406 h 14.35306 v 1.57151 h -3.43635 q -0.81718,0 -1.2153,0.44002 -0.37716,0.41906 -0.37716,1.34101 v 24.4526 q 0,0.88004 0.48193,1.2572 0.50288,0.35621 1.99057,0.35621 h 4.3583 q 3.47826,0 5.67837,-2.30487 2.22106,-2.32583 3.22682,-8.0461 h 1.46674 l -0.71242,11.92247 h -25.81456 v -1.5715 h 2.53536 q 1.29911,0 1.82294,-0.48193 0.52384,-0.50288 0.52384,-1.59246 v -24.20115 q 0,-0.77528 -0.44003,-1.17339 -0.44002,-0.39811 -1.29911,-0.39811 h -3.143 z"
           style="font-style:normal;font-variant:normal;font-weight:normal;font-stretch:normal;font-size:42.91252136px;font-family:'Century Schoolbook';-inkscape-font-specification:'Century Schoolbook, Normal';font-variant-ligatures:normal;font-variant-caps:normal;font-variant-numeric:normal;font-feature-settings:normal;text-align:start;writing-mode:lr-tb;text-anchor:start;fill:#e6e6e6;fill-opacity:1;stroke-width:1.07281291"
           id="path928" />
        <path
           d="m -114.4586,305.80591 0.75432,1.17339 q -1.5296,1.57151 -3.39445,1.57151 -1.42483,0 -2.40964,-0.77528 -0.96385,-0.77527 -1.69722,-2.72394 -1.99057,2.09534 -3.49921,2.80775 -1.50865,0.69147 -3.62494,0.69147 -3.01728,0 -4.58879,-1.29911 -1.5715,-1.29911 -1.5715,-3.33159 0,-3.05919 3.58303,-5.07072 3.60398,-2.03248 9.57569,-2.70298 v -2.97538 q 0,-1.59246 -1.27816,-2.72394 -1.27815,-1.13149 -3.24777,-1.13149 -1.82294,0 -3.14301,0.75433 -0.9429,0.56574 -0.9429,1.11052 0,0.3143 0.50288,0.98481 0.60765,0.83814 0.60765,1.48769 0,0.94291 -0.60765,1.55055 -0.60765,0.5867 -1.59245,0.5867 -1.04767,0 -1.76009,-0.71242 -0.69146,-0.71241 -0.69146,-1.82294 0,-2.07439 2.32583,-3.79256 2.34677,-1.71818 6.13934,-1.71818 3.49921,0 5.34311,1.50864 1.84389,1.5296 1.84389,3.70875 v 10.72813 q 0,1.42483 0.46098,2.09534 0.46097,0.69146 1.19434,0.69146 0.81718,0 1.71818,-0.67051 z m -6.87271,-8.27658 q -5.32216,0.73337 -7.54322,2.38868 -1.65531,1.25721 -1.65531,3.56208 0,1.61341 0.85909,2.53536 0.85908,0.90099 2.24201,0.90099 2.4725,0 4.27449,-1.86485 1.82294,-1.8858 1.82294,-4.71451 z"
           style="font-style:normal;font-variant:normal;font-weight:normal;font-stretch:normal;font-size:42.91252136px;font-family:'Century Schoolbook';-inkscape-font-specification:'Century Schoolbook, Normal';font-variant-ligatures:normal;font-variant-caps:normal;font-variant-numeric:normal;font-feature-settings:normal;text-align:start;writing-mode:lr-tb;text-anchor:start;fill:#e6e6e6;fill-opacity:1;stroke-width:1.07281291"
           id="path930" />
        <path
           d="m -111.75561,288.33079 h 9.40807 v 1.42483 h -0.88005 q -1.23625,0 -1.69722,0.33526 -0.44002,0.3143 -0.44002,0.92195 0,0.27239 0.12572,0.54479 l 5.468831,11.8177 4.064956,-9.80618 q 0.440021,-1.04767 0.440021,-2.05343 0,-0.77528 -0.607648,-1.19434 -0.607648,-0.44003 -2.430592,-0.56575 v -1.42483 h 8.171818 v 1.42483 q -2.367732,0.23049 -3.184914,2.1163 l -7.249872,16.90937 q -1.86485,4.29545 -3.7297,5.90886 -1.8858,1.63436 -4.044,1.63436 -1.5715,0 -2.53536,-0.85909 -0.9429,-0.85909 -0.9429,-2.11629 0,-0.9429 0.58669,-1.55055 0.5867,-0.60765 1.46674,-0.60765 0.79623,0 1.34102,0.52384 0.54478,0.52383 0.54478,1.2572 0,0.23049 -0.0838,0.6286 -0.0838,0.3143 -0.0838,0.46097 0,0.50289 0.64955,0.50289 0.69146,0 1.55055,-0.50289 0.88004,-0.50288 1.63436,-1.61341 0.75433,-1.11052 2.64013,-4.90309 l -7.43845,-15.98742 q -0.39811,-0.83814 -1.00576,-1.23625 -0.5867,-0.41907 -1.73913,-0.56575 z"
           style="font-style:normal;font-variant:normal;font-weight:normal;font-stretch:normal;font-size:42.91252136px;font-family:'Century Schoolbook';-inkscape-font-specification:'Century Schoolbook, Normal';font-variant-ligatures:normal;font-variant-caps:normal;font-variant-numeric:normal;font-feature-settings:normal;text-align:start;writing-mode:lr-tb;text-anchor:start;fill:#e6e6e6;fill-opacity:1;stroke-width:1.07281291"
           id="path932" />
        <path
           d="m -83.112338,280.3266 h 1.42483 v 8.00419 h 6.348874 v 1.92772 h -6.348874 v 12.59298 q 0,1.63436 0.775275,2.5144 0.775275,0.85909 1.969617,0.85909 1.42483,0 2.430593,-1.32006 1.005762,-1.32007 1.173389,-4.35831 h 1.403876 q -0.12572,3.91829 -1.781037,5.82504 -1.655317,1.88581 -4.295443,1.88581 -2.430592,0 -3.813515,-1.32006 -1.36197,-1.34102 -1.36197,-3.49922 v -13.17967 h -3.4154 v -1.46674 q 2.325825,-0.39812 3.541121,-1.94867 1.80199,-2.32582 1.948664,-6.5165 z"
           style="font-style:normal;font-variant:normal;font-weight:normal;font-stretch:normal;font-size:42.91252136px;font-family:'Century Schoolbook';-inkscape-font-specification:'Century Schoolbook, Normal';font-variant-ligatures:normal;font-variant-caps:normal;font-variant-numeric:normal;font-feature-settings:normal;text-align:start;writing-mode:lr-tb;text-anchor:start;fill:#e6e6e6;fill-opacity:1;stroke-width:1.07281291"
           id="path934" />
        <path
           d="m -62.326582,287.7441 q 3.960189,0 6.642222,2.87061 2.702986,2.84966 2.702986,7.52227 0,3.22682 -1.215296,5.51074 -1.194343,2.26296 -3.436355,3.58302 -2.221058,1.32007 -4.798324,1.32007 -3.813515,0 -6.474594,-2.89157 -2.640126,-2.89157 -2.640126,-7.50131 0,-4.6307 2.66108,-7.52226 2.661079,-2.89157 6.558407,-2.89157 z m 0,1.48769 q -2.346778,0 -3.855421,2.13724 -1.508644,2.1163 -1.508644,6.70509 0,4.6726 1.48769,6.8308 1.508644,2.1582 3.876375,2.1582 2.451546,0 3.960189,-2.1582 1.529597,-2.1582 1.529597,-7.06129 0,-4.54688 -1.508643,-6.57936 -1.48769,-2.03248 -3.981143,-2.03248 z"
           style="font-style:normal;font-variant:normal;font-weight:normal;font-stretch:normal;font-size:42.91252136px;font-family:'Century Schoolbook';-inkscape-font-specification:'Century Schoolbook, Normal';font-variant-ligatures:normal;font-variant-caps:normal;font-variant-numeric:normal;font-feature-settings:normal;text-align:start;writing-mode:lr-tb;text-anchor:start;fill:#e6e6e6;fill-opacity:1;stroke-width:1.07281291"
           id="path936" />
        <path
           d="m -50.131722,288.33079 6.516501,-0.39811 q 0.398114,1.8439 0.586694,4.3164 1.320063,-2.13725 3.101101,-3.20587 1.80199,-1.06862 4.064955,-1.06862 1.948664,0 3.268727,0.77527 1.320063,0.75432 2.116292,2.40964 0.796228,1.65532 0.796228,3.70875 v 9.55474 q 0,1.06862 0.481928,1.5296 0.481928,0.44002 1.61341,0.44002 h 1.382923 v 1.5715 h -10.350969 v -1.5715 h 0.984808 q 1.382924,0 1.927711,-0.44002 0.544788,-0.44002 0.544788,-1.32007 v -8.4023 q 0,-2.74489 -0.838135,-4.06496 -1.173389,-1.8858 -3.562074,-1.8858 -2.367732,0 -3.960189,1.90676 -1.571504,1.90675 -1.571504,4.96595 v 7.27082 q 0,1.06862 0.481928,1.5296 0.502881,0.44002 1.634364,0.44002 h 1.361969 v 1.5715 h -10.392876 v -1.5715 h 1.36197 q 1.026715,0 1.55055,-0.41907 0.544788,-0.41907 0.544788,-1.04767 v -12.67679 q 0,-1.25721 -0.691462,-1.90676 -0.670508,-0.64956 -1.948664,-0.64956 h -1.005762 z"
           style="font-style:normal;font-variant:normal;font-weight:normal;font-stretch:normal;font-size:42.91252136px;font-family:'Century Schoolbook';-inkscape-font-specification:'Century Schoolbook, Normal';font-variant-ligatures:normal;font-variant-caps:normal;font-variant-numeric:normal;font-feature-settings:normal;text-align:start;writing-mode:lr-tb;text-anchor:start;fill:#e6e6e6;fill-opacity:1;stroke-width:1.07281291"
           id="path938" />
      </g>
    </g>
  </g>
</svg>
